<svg xmlns="http://www.w3.org/2000/svg"><symbol id="bubbles" viewBox="0 0 201 234"><path d="M72.7 134.7H60.8L45 153.4l2.5 3.6 30.4-16-5.2-6.3zm-21.9-12.9h98.5v9.36H50.8zm86-3.6a43.5 43.5 0 0 0 2.2-13.7 39 39 0 0 0-77.9 0c0 4.7.4 9.5 2.2 13.7zm-73.4 34.7h24.4l-7.3-9-17.1 9zm61.9-18.2l-5.4 6.3 30.6 16 2.5-3.4-15.8-18.9h-11.9z"/><path d="M99 6.4L4.1 61.2v109.6L99 225.6l94.9-54.8V61.2zm57.6 148.1l-4.1 5.9a1.9 1.9 0 0 1-2.3.5l-8.6-4.5H56.3l-8.6 4.6a2 2 0 0 1-2.3-.5l-4.1-5.9a1.9 1.9 0 0 1 .2-2.2l14.9-17.6H49a1.7 1.7 0 0 1-1.8-1.8v-13a1.7 1.7 0 0 1 1.8-1.8h10.4a50.3 50.3 0 0 1-2-13.7 42.6 42.6 0 0 1 85.1 0 44.2 44.2 0 0 1-2 13.7H151a1.7 1.7 0 0 1 1.8 1.8v13a1.7 1.7 0 0 1-1.8 1.8h-9.2l14.8 17.6a1.9 1.9 0 0 1 0 2.1z"/><path d="M110.2 152.9h24.4l-17.1-9-7.3 9zm-32.8-18.2l15.1 18.2h13l15.1-18.2H77.4z"/></symbol><symbol id="stilts" viewBox="0 0 201 234"><path d="M52.8 132.9h48.4v19.98H52.8zm48.4-17.1V79.5l-25.9 36.3h25.9zm3.6-40.1v40.1h49.7a53.5 53.5 0 0 0-49.7-40.1zm0 57.2h8.1v19.98h-8.1zm-5.4-57c-23 1.4-42.3 18.2-47.9 40h19.3z"/><path d="M103 6.4L8.1 61.2v109.6l94.9 54.8 94.9-54.8V61.2zm77.6 126.5h-23.8v21.8a1.7 1.7 0 0 1-1.8 1.8H51a1.7 1.7 0 0 1-1.8-1.8v-21.8H25.4a1.8 1.8 0 0 1 0-3.6h13.5v-11.7a1.7 1.7 0 0 1 1.8-1.8h7a57.1 57.1 0 0 1 55.1-43.7c.2-.2.4-.2.7 0a56.9 56.9 0 0 1 54.7 43.7h7a1.7 1.7 0 0 1 1.8 1.8v11.7h13.5a1.8 1.8 0 1 1 0 3.6z"/><path d="M42.5 119.4h121v9.9h-121zm74 13.5h36.7v19.98h-36.7z"/></symbol><symbol id="domes" viewBox="0 0 201 234"><path d="M75.6 141.6h18v11.34h-18zm21.6 0h11.5v11.34H97.2zm15.2 0h18v11.34h-18zM103 66.5c-21.1 0-38.7 12.8-39.6 36h79.2c-.9-23.2-18.5-36-39.6-36zm-42.5 75.1H72v11.34H60.5zM49.7 138h106.6v-31.9H49.7zm52.4-12.2H146a1.8 1.8 0 0 1 0 3.6h-43.9a1.8 1.8 0 1 1 0-3.6z"/><path d="M103 6.4L8.1 61.2v109.6l94.9 54.8 94.9-54.8V61.2zm56.9 133.4a1.7 1.7 0 0 1-1.8 1.8h-9v11.3h9a1.8 1.8 0 1 1 0 3.6H47.9a1.8 1.8 0 0 1 0-3.6h9v-11.3h-9a1.7 1.7 0 0 1-1.8-1.8v-35.5a1.7 1.7 0 0 1 1.8-1.8h11.9c.9-25.6 20-39.6 43.2-39.6s42.3 14 43.2 39.6h11.9a1.7 1.7 0 0 1 1.8 1.8z"/><path d="M134 141.6h11.5v11.34H134z"/></symbol></svg>