<svg xmlns="http://www.w3.org/2000/svg"><symbol id="mecha-stilts" viewBox="0 0 201 236"><path d="M100 7.9l94.9 54.8v109.6L100 227.1 5.1 172.3V62.7L100 7.9z"/><path fill="#fff" d="M44.9 158a1.8 1.8 0 0 1 0-3.6h9v-11.3h-9a1.7 1.7 0 0 1-1.8-1.8v-35.5a1.7 1.7 0 0 1 1.8-1.8h11.9c.9-25.6 20-39.6 43.2-39.6s42.3 14 43.2 39.6h11.9a1.7 1.7 0 0 1 1.8 1.8v35.5a1.7 1.7 0 0 1-1.8 1.8h-9v11.3h9a1.8 1.8 0 1 1 0 3.6zm1.8-50.4v31.9h106.6v-31.9zm10.8 35.5v11.3H69v-11.3zm2.9-39.1h79.2c-.9-23.2-18.5-36-39.6-36s-38.7 12.8-39.6 36zm12.2 39.1v11.3h18v-11.3zm21.6 0v11.3h11.5v-11.3zm48.8-12.3H99.1a1.8 1.8 0 1 1 0-3.6H143a1.8 1.8 0 0 1 0 3.6zM109.3 143v11.3h18v-11.2zm21.6 0v11.3h11.5v-11.2z"/></symbol><symbol id="space-bubbles" viewBox="0 0 201 236"><path d="M100 8.4l94.9 54.8v109.6L100 227.6 5.1 172.8V63.2L100 8.4z"/><path fill="#fff" d="M46.4 162.5l-4.1-5.9a1.9 1.9 0 0 1 .2-2.2l14.9-17.6H50a1.7 1.7 0 0 1-1.8-1.8v-13a1.7 1.7 0 0 1 1.8-1.8h10.4a50.3 50.3 0 0 1-2-13.7 42.6 42.6 0 0 1 85.1 0 44.2 44.2 0 0 1-2 13.7H152a1.7 1.7 0 0 1 1.8 1.8v13a1.7 1.7 0 0 1-1.8 1.8h-9.2l14.8 17.6a1.9 1.9 0 0 1 0 2.2l-4.1 5.9a1.9 1.9 0 0 1-2.3.5l-8.6-4.5H57.3l-8.6 4.5a2 2 0 0 1-2.3-.5zm27.4-25.7h-12L46 155.4l2.5 3.6 30.4-16zm-22-13v9.4h98.5v-9.4zm12.4-3.6h73.6a43.5 43.5 0 0 0 2.2-13.7 39 39 0 0 0-77.9 0c-.1 4.7.3 9.5 2.1 13.7zm17.3 25.7l-17.1 9h24.4zm-3.1-9.2l15.1 18.2h13l15.1-18.2zm40.1 9.2l-7.4 9h24.5zm19.6-9.2h-11.8l-5.4 6.3 30.6 16 2.5-3.4z"/></symbol><symbol id="super-domes" viewBox="0 0 201 236"><path d="M100 8.4l94.9 54.8v109.6L100 227.6 5.1 172.8V63.2L100 8.4z"/><path fill="#fff" d="M48 158.5a1.7 1.7 0 0 1-1.8-1.8v-21.8H22.4a1.8 1.8 0 0 1 0-3.6h13.5v-11.7a1.7 1.7 0 0 1 1.8-1.8h7a57.1 57.1 0 0 1 55.1-43.7c.2-.2.4-.2.7 0a56.9 56.9 0 0 1 54.7 43.7h7a1.7 1.7 0 0 1 1.8 1.8v11.7h13.5a1.8 1.8 0 1 1 0 3.6h-23.7v21.8a1.7 1.7 0 0 1-1.8 1.8zm-8.5-37.1v9.9h121v-9.9zm56.9-43.5c-23 1.4-42.3 18.2-47.9 40h19.3zm-46.6 57v20h48.4v-20zm48.4-53.4l-25.9 36.3h25.9zm3.6-3.8v40.1h49.7a53.5 53.5 0 0 0-49.7-40.1zm0 57.2v20h8.1v-20zm11.7 0v20h36.7v-20z"/></symbol></svg>